<?xml version="1.0" encoding="UTF-8"?>
<svg version="1.1" xmlns="http://www.w3.org/2000/svg" width="600" height="596">
<path d="M0 0 C1.01373688 0.00154083 2.02747375 0.00308167 3.07192993 0.00466919 C54.34755362 0.18996931 99.38008031 17.80510073 136.03515625 53.8203125 C148.89950349 66.91496775 159.06293361 82.17855877 167.5625 98.375 C168.16835938 99.50808594 168.77421875 100.64117187 169.3984375 101.80859375 C181.30407554 125.53906233 186.73108109 152.05526492 186.69621277 178.44641113 C186.69847833 179.71959434 186.70074388 180.99277755 186.70307809 182.30454206 C186.70914816 185.80839187 186.70906824 189.31221765 186.70788372 192.81607151 C186.70767851 196.60602238 186.71320946 200.39596576 186.71794128 204.18591309 C186.72621954 211.59629296 186.72899475 219.00666488 186.72955366 226.41704899 C186.7300297 232.43745255 186.73208877 238.45785349 186.73525429 244.47825623 C186.74404928 261.55270473 186.74867489 278.62714696 186.74792381 295.70159775 C186.74786388 297.08003929 186.74786388 297.08003929 186.74780273 298.48632812 C186.74776185 299.40641126 186.74772097 300.32649439 186.74767885 301.27445883 C186.7472716 316.21588624 186.756864 331.15728855 186.7709411 346.09870869 C186.78528639 361.44577162 186.79221246 376.79282229 186.79134732 392.1398921 C186.79101496 400.75436942 186.79378015 409.36882034 186.80452538 417.98329163 C186.81360556 425.30946493 186.81582577 432.63559984 186.80901595 439.96177632 C186.80573955 443.70089332 186.80573444 447.43993654 186.8143692 451.17904663 C186.82361908 455.22590694 186.81748844 459.27259463 186.80973816 463.31945801 C186.81488172 464.50941014 186.82002529 465.69936227 186.82532471 466.92537355 C186.82072592 468.00441564 186.81612712 469.08345773 186.81138897 470.19519806 C186.81171502 471.59710475 186.81171502 471.59710475 186.81204766 473.02733278 C186.5625 475.375 186.5625 475.375 184.5625 478.375 C173.23371741 482.06756716 159.68101597 480.68410885 147.94140625 480.67578125 C145.63288803 480.67968003 143.32437051 480.68401707 141.01585388 480.68876648 C136.18201373 480.6962032 131.3482466 480.69595922 126.5144043 480.69067383 C121.61847692 480.68606662 116.72279928 480.69286925 111.8269043 480.71118164 C42.08901525 480.96982813 42.08901525 480.96982813 14.5625 472.375 C13.82789551 472.14941406 13.09329102 471.92382812 12.33642578 471.69140625 C-6.92353832 465.65908836 -26.11024956 456.0840718 -41.484375 442.90625 C-43.45986136 441.18062259 -43.45986136 441.18062259 -46.4375 440.375 C-48.14353715 438.74865662 -49.80257086 437.07281103 -51.4375 435.375 C-52.51405958 434.34847391 -53.59505273 433.32658381 -54.6796875 432.30859375 C-72.46421136 415.32152715 -84.47493348 396.30013304 -95.4375 374.375 C-120.8475 374.375 -146.2575 374.375 -172.4375 374.375 C-172.2725 382.3775 -172.1075 390.38 -171.9375 398.625 C-171.33569631 429.36379539 -171.33569631 429.36379539 -171.3125 442.9375 C-171.30798828 443.97745117 -171.30347656 445.01740234 -171.29882812 446.08886719 C-171.30835432 450.82815032 -171.49646821 455.49136269 -171.94580078 460.21069336 C-172.03741486 461.18316513 -172.12902893 462.1556369 -172.22341919 463.15757751 C-172.29406586 463.88932693 -172.36471252 464.62107635 -172.4375 465.375 C-170.81735237 465.35620789 -170.81735237 465.35620789 -169.16447449 465.33703613 C-158.85688406 465.21768373 -148.54927566 465.10000124 -138.24164867 464.98384857 C-132.94567608 464.92411947 -127.64971087 464.86385341 -122.35375977 464.80224609 C-110.43514214 464.66391627 -98.51650207 464.53563353 -86.59759521 464.42480469 C-83.36710318 464.39453173 -80.13670586 464.36056479 -76.90631104 464.32128906 C-73.14202995 464.27561878 -69.37774695 464.245648 -65.61328125 464.21875 C-64.59042526 464.2038855 -63.56756927 464.189021 -62.51371765 464.17370605 C-56.46221259 464.14910262 -50.18219037 464.28206513 -44.4375 466.375 C-41.95711093 470.0955836 -41.97412797 471.97296571 -42.4375 476.375 C-44.4588053 479.00682818 -45.72445269 480.20571927 -48.97944641 480.97846985 C-49.99854599 481.02336044 -51.01764557 481.06825104 -52.06762695 481.11450195 C-53.31975983 481.1697403 -54.5718927 481.22497864 -55.86196899 481.28189087 C-66.0252942 481.52267374 -76.18983268 481.53989218 -86.35546875 481.54296875 C-88.86501585 481.54618783 -91.37456277 481.54955237 -93.8841095 481.55305481 C-99.12123042 481.55901435 -104.35833491 481.5608978 -109.59545898 481.56030273 C-114.95388751 481.55976749 -120.3122442 481.5668483 -125.6706543 481.58081055 C-132.17719767 481.59751739 -138.68367659 481.60435734 -145.19024086 481.60369301 C-147.65684691 481.604868 -150.12345372 481.60926261 -152.59004784 481.61702538 C-156.04212155 481.62688016 -159.49396713 481.62392642 -162.94604492 481.61791992 C-163.95048645 481.62353943 -164.95492798 481.62915894 -165.98980713 481.63494873 C-179.53756103 481.57538921 -179.53756103 481.57538921 -185.4375 479.375 C-189.55972782 474.14946148 -188.57864951 465.01187061 -188.53913879 458.63842773 C-188.53804261 457.79370218 -188.53694643 456.94897663 -188.53581703 456.07865334 C-188.53100323 453.25943389 -188.5190062 450.44029139 -188.50708008 447.62109375 C-188.50219915 445.57987066 -188.49780439 443.53864637 -188.49385548 441.49742126 C-188.48457349 437.0954984 -188.47236952 432.69359649 -188.45810318 428.29168701 C-188.43624202 421.35087723 -188.42482511 414.41007462 -188.41537476 407.46923828 C-188.37274685 377.7163919 -188.29213867 347.96364143 -188.20178509 318.21090698 C-188.19282307 315.24428319 -188.18391329 312.27765924 -188.17504883 309.31103516 C-188.17284514 308.57423106 -188.17064146 307.83742696 -188.168371 307.07829547 C-188.13277365 295.07158748 -188.10800809 283.06487988 -188.08715298 271.05813825 C-188.06530292 258.61057834 -188.03221241 246.1630845 -187.98879844 233.71558094 C-187.96256527 226.09816549 -187.94466319 218.48083161 -187.93815396 210.86337334 C-187.93221916 205.03119673 -187.91049771 199.1991564 -187.88322449 193.36704445 C-187.87452231 190.99935017 -187.87070517 188.63163134 -187.87249184 186.26392174 C-187.89900965 134.86569533 -170.96088735 89.62995571 -135.4375 52.375 C-134.69886719 51.58351562 -133.96023437 50.79203125 -133.19921875 49.9765625 C-98.55405466 13.87465476 -48.6276635 -0.11197765 0 0 Z M-45.9375 20.125 C-46.7210083 20.29418945 -47.5045166 20.46337891 -48.31176758 20.63769531 C-62.69296475 23.8962179 -81.32590604 29.24257254 -92.4375 39.375 C-93.02734276 41.46509076 -93.02734276 41.46509076 -92.92524719 43.82913208 C-92.93219101 44.74053955 -92.93913483 45.65194702 -92.94628906 46.5909729 C-92.933479 47.58849579 -92.92066895 48.58601868 -92.9074707 49.61376953 C-92.9096611 50.66598694 -92.9118515 51.71820435 -92.91410828 52.80230713 C-92.91642392 56.28779298 -92.89014046 59.77243896 -92.86328125 63.2578125 C-92.85836013 65.67251314 -92.85505944 68.08721758 -92.85331726 70.50192261 C-92.84566983 75.56439373 -92.82508381 80.62658288 -92.79418945 85.68896484 C-92.75457189 92.19398574 -92.73657523 98.6988231 -92.72688007 105.20395088 C-92.71692903 111.38859655 -92.69701852 117.57319682 -92.67578125 123.7578125 C-92.6723855 124.94647038 -92.66898975 126.13512825 -92.6654911 127.35980606 C-92.65397305 130.70493288 -92.6354621 134.04994021 -92.61450195 137.39501953 C-92.61181305 138.39659088 -92.60912415 139.39816223 -92.60635376 140.43008423 C-92.59919846 141.33585205 -92.59204315 142.24161987 -92.58467102 143.17483521 C-92.58039754 143.96644609 -92.57612406 144.75805698 -92.57172108 145.57365608 C-92.63286491 147.39717175 -92.63286491 147.39717175 -91.4375 148.375 C-90.05527829 148.56625786 -88.66478257 148.69850212 -87.2734375 148.8046875 C-86.40605957 148.87598877 -85.53868164 148.94729004 -84.64501953 149.02075195 C-83.71028809 149.09640381 -82.77555664 149.17205566 -81.8125 149.25 C-52.0844781 151.90850154 -24.37150677 162.44501228 -1.109375 181.30859375 C1.09007704 183.00963195 3.02952349 184.27134595 5.5625 185.375 C5.5625 186.035 5.5625 186.695 5.5625 187.375 C7.54510426 189.06232277 9.5457342 190.72866057 11.5625 192.375 C11.8925 193.035 12.2225 193.695 12.5625 194.375 C13.2225 194.375 13.8825 194.375 14.5625 194.375 C14.9646875 195.26251953 14.9646875 195.26251953 15.375 196.16796875 C16.5728024 198.39414755 17.82186491 199.86736475 19.5625 201.6875 C46.72297324 232.39064366 52.65801443 270.87246732 53.5625 310.375 C54.2225 310.375 54.8825 310.375 55.5625 310.375 C57.06384591 308.36301302 58.41834851 306.37144898 59.75 304.25 C60.14928711 303.61908447 60.54857422 302.98816895 60.95996094 302.33813477 C71.99481102 284.59915091 80.63474902 264.51163218 81.47027016 243.46334267 C81.56071744 241.41536213 81.6784659 239.37077361 81.8033905 237.32463074 C82.96123007 217.1938238 82.76636871 197.0196346 82.80078125 176.86328125 C82.80483862 174.82580237 82.8089558 172.7883236 82.81313133 170.75084496 C82.83206982 161.20253958 82.84634321 151.65424154 82.8547433 142.10592109 C82.86457834 131.11463356 82.89110625 120.12354403 82.93124419 109.13232642 C82.96133326 100.59942081 82.97620388 92.06657247 82.97952431 83.53361481 C82.98187594 78.44931936 82.99085734 73.36523838 83.01598549 68.28100014 C83.03915543 63.51927328 83.04354461 58.7579042 83.03322411 53.99613571 C83.03272652 52.24774043 83.03911219 50.49932803 83.05278015 48.7509861 C83.07035614 46.37056768 83.0634662 43.99145523 83.05024719 41.61103821 C83.06121644 40.91495793 83.07218568 40.21887766 83.08348733 39.50170404 C83.04139732 36.37797872 82.97320975 34.79371632 80.73953533 32.51649761 C77.71463458 30.93043379 74.61844713 29.60707942 71.4375 28.375 C70.76299805 28.11154785 70.08849609 27.8480957 69.39355469 27.57666016 C61.1820364 24.40947245 52.97104662 22.17503378 44.375 20.3125 C43.6334668 20.14991699 42.89193359 19.98733398 42.12792969 19.81982422 C28.95326281 17.0655287 16.12003649 16.04635881 2.70214844 16.11425781 C0.19701786 16.12495934 -2.30739122 16.11430366 -4.8125 16.1015625 C-18.67980715 16.08897411 -32.35640007 17.18329079 -45.9375 20.125 Z M91.5625 40.375 C91.55826806 41.3418488 91.55403612 42.30869761 91.54967594 43.30484486 C91.44617412 66.90341981 91.33738825 90.50196599 91.22316074 114.10049152 C91.16804021 125.51286671 91.11459472 136.92524502 91.06518555 148.33764648 C91.02208256 158.29245698 90.97574195 168.24724643 90.92562145 178.20202416 C90.89922893 183.46591164 90.87438434 188.72979551 90.85342598 193.99370766 C90.83358691 198.96358962 90.80936968 203.93343229 90.78200912 208.90327835 C90.7727807 210.71264227 90.76505708 212.5220147 90.75908089 214.33139229 C90.72796476 223.48270604 90.5726444 232.61059717 90.11094666 241.75138855 C90.07233223 242.53436099 90.03371781 243.31733344 89.99393326 244.12403232 C89.6802766 249.76654081 88.9167181 255.11377834 87.375 260.5625 C87.15215332 261.39015869 86.92930664 262.21781738 86.69970703 263.07055664 C80.95601251 283.79528924 71.82252607 306.77194241 55.97332764 321.83589172 C52.36306994 326.21112885 52.86562173 331.03627881 52.91894531 336.47338867 C52.9100679 337.581353 52.90119049 338.68931732 52.89204407 339.83085632 C52.86838415 343.48519969 52.87954811 347.13857968 52.890625 350.79296875 C52.88004689 353.33312524 52.86713608 355.87327301 52.85198975 358.41340637 C52.8212635 364.41274026 52.81187259 370.41172333 52.81356406 376.4111045 C52.81524214 386.52205737 52.77077666 396.63287339 52.73016357 406.74372864 C52.71011605 411.76516041 52.70081403 416.78643696 52.70001221 421.8079071 C52.69619261 424.09353642 52.69234872 426.37916569 52.68847656 428.66479492 C52.69057632 429.71056702 52.69267609 430.75633911 52.69483948 431.83380127 C52.69227646 432.78846786 52.68971344 433.74313446 52.68707275 434.72673035 C52.6871143 435.55684726 52.68715584 436.38696417 52.68719864 437.24223614 C52.5625 439.375 52.5625 439.375 51.5625 442.375 C49.625 443.125 49.625 443.125 47.5625 443.375 C46.9025 443.045 46.2425 442.715 45.5625 442.375 C44.64193157 429.65163661 44.42870268 416.99943586 44.46484375 404.24609375 C44.46671442 402.27498918 44.46813525 400.30388414 44.46913147 398.33277893 C44.4729056 393.2054002 44.48269074 388.07805089 44.49383545 382.95068359 C44.50416085 377.69433998 44.50865266 372.43799151 44.51367188 367.18164062 C44.52431888 356.91274766 44.54133201 346.6438763 44.5625 336.375 C41.27409762 337.93585459 38.49384632 339.85177503 35.59204102 342.05493164 C5.71580481 364.72349235 -27.72737821 374.11094388 -64.96630859 373.30371094 C-68.95490348 373.41877414 -72.58665532 374.36494238 -76.4375 375.375 C-53.43698965 416.72698137 -22.0356638 444.40770019 23.5625 458.375 C24.60148437 458.69597656 25.64046875 459.01695312 26.7109375 459.34765625 C44.54870246 464.3192462 63.45988869 463.64949028 81.79296875 463.5703125 C84.36656076 463.56657318 86.94015421 463.56373056 89.51374817 463.56173706 C95.54095479 463.55494149 101.56807179 463.53926071 107.5952428 463.51903808 C114.47099541 463.49648182 121.34675208 463.48563669 128.22253263 463.47564721 C142.33589482 463.45488689 156.44919473 463.41983585 170.5625 463.375 C170.60839151 426.82222068 170.64357689 390.26944645 170.66463066 353.71664419 C170.66713173 349.39011626 170.66972041 345.06358839 170.67236328 340.73706055 C170.6728879 339.8758154 170.67341252 339.01457026 170.67395304 338.12722678 C170.68262874 324.22679097 170.6983829 310.3263719 170.71680559 296.42594599 C170.73558388 282.13682916 170.74663339 267.84772104 170.75067699 253.55859238 C170.7534057 244.75884125 170.76198788 235.95913744 170.77833293 227.15940089 C170.78899798 221.10502621 170.79207938 215.05067559 170.78950275 208.99629223 C170.78823607 205.51602761 170.79001823 202.035845 170.80091095 198.5555954 C170.83461748 185.90228253 170.75503031 173.31561904 169.68893433 160.70033264 C169.5756898 159.35397048 169.5756898 159.35397048 169.46015751 157.98040909 C166.46837085 126.87704771 151.89125163 96.77751477 131.5625 73.375 C130.75039063 72.42882812 129.93828125 71.48265625 129.1015625 70.5078125 C125.03323965 65.44702223 125.03323965 65.44702223 119.5625 62.375 C119.5625 61.715 119.5625 61.055 119.5625 60.375 C118.01361498 58.95793498 116.39488466 57.61690504 114.75 56.3125 C113.75355469 55.51585937 112.75710938 54.71921875 111.73046875 53.8984375 C111.20888184 53.48432617 110.68729492 53.07021484 110.14990234 52.64355469 C107.59719553 50.60358782 105.08293465 48.51711097 102.5625 46.4375 C97.6710779 41.94851755 97.6710779 41.94851755 91.5625 40.375 Z M-115.1875 55.5625 C-115.7134375 56.04525391 -116.239375 56.52800781 -116.78125 57.02539062 C-141.71850861 80.01828377 -161.4060141 108.65162355 -168.4375 142.375 C-168.4375 144.025 -168.4375 145.675 -168.4375 147.375 C-148.6375 147.375 -128.8375 147.375 -108.4375 147.375 C-108.4375 115.365 -108.4375 83.355 -108.4375 50.375 C-110.80672457 50.375 -113.44044204 53.94231173 -115.1875 55.5625 Z M-170.4375 157.375 C-171.10493902 162.04707317 -171.56731587 166.03319179 -171.59571838 170.66429138 C-171.6055072 171.88349777 -171.61529602 173.10270416 -171.62538147 174.3588562 C-171.63128572 175.69293173 -171.63709616 177.02700768 -171.64282227 178.36108398 C-171.65241705 179.78175633 -171.66242804 181.20242592 -171.67282104 182.62309265 C-171.69982439 186.48113186 -171.72089025 190.33918306 -171.74082303 194.19726443 C-171.76290439 198.28811101 -171.79022593 202.37892295 -171.81687927 206.46974182 C-171.86117182 213.38239937 -171.90188917 220.29507043 -171.94018555 227.20776367 C-171.9884674 235.92021328 -172.04234512 244.63261795 -172.09815407 253.3450222 C-172.33518698 290.35568958 -172.49051443 327.36335383 -172.4375 364.375 C-148.0175 364.375 -123.5975 364.375 -98.4375 364.375 C-99.7575 359.095 -101.0775 353.815 -102.4375 348.375 C-107.31040197 326.7176579 -107.51794718 305.17291512 -107.44180298 283.06627655 C-107.38881368 266.35007253 -107.47519571 249.63708681 -107.65625 232.921875 C-107.6672769 231.90341366 -107.67830379 230.88495232 -107.68966484 229.83562851 C-107.75750313 223.64571824 -107.82875909 217.45585073 -107.90106201 211.26599121 C-107.97506936 204.88648345 -108.04586986 198.50693935 -108.11704254 192.12739944 C-108.17218457 187.18801103 -108.22780307 182.24862983 -108.28503418 177.30926514 C-108.29530136 176.41357819 -108.30556854 175.51789124 -108.31614685 174.59506226 C-108.33516935 172.93681527 -108.3544462 171.27857116 -108.3740387 169.62033081 C-108.38245285 168.88184906 -108.390867 168.14336731 -108.39953613 167.38250732 C-108.40691048 166.74940014 -108.41428482 166.11629295 -108.42188263 165.4640007 C-108.4420399 162.76773746 -108.4375 160.07133859 -108.4375 157.375 C-128.8975 157.375 -149.3575 157.375 -170.4375 157.375 Z M-92.4375 157.375 C-92.50791858 177.85642975 -92.56064776 198.33783457 -92.59293652 218.81936073 C-92.60833444 228.33160093 -92.62928671 237.84376545 -92.66381836 247.35595703 C-92.69393943 255.65723203 -92.71312624 263.95845215 -92.71976548 272.25978029 C-92.72363974 276.64578644 -92.73259257 281.03163576 -92.75469017 285.41759109 C-93.15086243 318.36272096 -93.15086243 318.36272096 -86.375 350.4375 C-86.11912109 351.25025391 -85.86324219 352.06300781 -85.59960938 352.90039062 C-84.35891354 356.7947084 -82.97705812 360.58769526 -81.4375 364.375 C-75.87314103 364.42509118 -70.30891832 364.46104046 -64.74438477 364.48486328 C-62.85829375 364.49481288 -60.9722177 364.50837739 -59.08618164 364.52587891 C-44.27993437 364.65965845 -29.95827018 364.25696928 -15.6875 359.8125 C-14.85387939 359.5556543 -14.02025879 359.29880859 -13.16137695 359.03417969 C5.45950764 353.04270116 24.3468177 343.02205501 38.5625 329.375 C38.5625 328.715 38.5625 328.055 38.5625 327.375 C39.490625 326.941875 39.490625 326.941875 40.4375 326.5 C42.69575765 325.43779958 42.69575765 325.43779958 44.5625 323.375 C44.77583887 320.35450085 44.86643365 317.42851174 44.86328125 314.40625 C44.86970894 313.04288513 44.86970894 313.04288513 44.87626648 311.65197754 C44.88202436 309.71509634 44.88249938 307.77819352 44.87817383 305.84130859 C44.87507166 302.9419792 44.89824842 300.04372985 44.92382812 297.14453125 C44.97540517 282.31318597 43.97022162 267.5301959 38.9375 253.4375 C38.68806641 252.71570557 38.43863281 251.99391113 38.18164062 251.25024414 C34.05792576 239.7382068 28.92836783 225.50888192 20.5625 216.375 C19.9025 216.375 19.2425 216.375 18.5625 216.375 C18.3459375 215.446875 18.3459375 215.446875 18.125 214.5 C17.63097775 212.34241678 17.63097775 212.34241678 16.5625 210.375 C15.9025 210.375 15.2425 210.375 14.5625 210.375 C14.0675 208.395 14.0675 208.395 13.5625 206.375 C12.9025 206.375 12.2425 206.375 11.5625 206.375 C11.28954102 205.77896973 11.01658203 205.18293945 10.73535156 204.56884766 C8.86274643 201.06609376 6.10741159 198.53773256 3.3125 195.75 C2.69785889 195.13624512 2.08321777 194.52249023 1.44995117 193.89013672 C-2.82481811 189.72230453 -7.27202766 185.97612429 -12.125 182.5 C-13.00623535 181.86650635 -13.00623535 181.86650635 -13.90527344 181.22021484 C-16.64347936 179.33359256 -18.04017327 178.375 -21.4375 178.375 C-21.4375 177.715 -21.4375 177.055 -21.4375 176.375 C-22.7575 176.375 -24.0775 176.375 -25.4375 176.375 C-25.4375 175.715 -25.4375 175.055 -25.4375 174.375 C-38.50904316 167.45275047 -51.36565806 162.37424924 -65.8125 159.0625 C-66.87078003 158.80484863 -66.87078003 158.80484863 -67.95043945 158.54199219 C-73.41467347 157.37910511 -78.70841501 157.28880424 -84.26806641 157.33129883 C-85.44850273 157.33603085 -85.44850273 157.33603085 -86.65278625 157.34085846 C-88.58104038 157.34904414 -90.50927518 157.36158306 -92.4375 157.375 Z " fill="#ffffff" transform="translate(304.4375,65.625)"/>
<path d="M0 0 C2.875 0.3125 2.875 0.3125 6 1 C6.66 1.99 7.32 2.98 8 4 C6.02 3.34 4.04 2.68 2 2 C2.00092179 2.9668488 2.00184359 3.93369761 2.00279331 4.92984486 C2.02505914 28.52839143 2.04145709 52.12693664 2.05181217 75.72549152 C2.05695377 87.13788032 2.06395546 98.55026216 2.07543945 109.96264648 C2.08545188 119.91743909 2.09186894 129.87222666 2.09408849 139.82702416 C2.09538453 145.09092503 2.09839947 150.35481145 2.10573006 155.61870766 C2.1125941 160.58856985 2.11459618 165.55841187 2.11310768 170.52827835 C2.1133794 172.33765078 2.11532221 174.147024 2.11920547 175.95639229 C2.13771055 185.03565076 2.03510366 194.09735971 1.61790466 203.1681366 C1.58748803 203.92319026 1.5570714 204.67824393 1.52573305 205.45617801 C1.24513376 210.79563575 0.29947459 215.81726727 -1 221 C-1.33 221 -1.66 221 -2 221 C-1.89529184 219.95030265 -1.89529184 219.95030265 -1.78846836 218.8793993 C-0.85438298 208.39500397 -0.82610397 197.94908038 -0.79467773 187.43041992 C-0.78508131 185.37926545 -0.77507024 183.32811288 -0.76467896 181.27696228 C-0.73781484 175.74486297 -0.71670602 170.21275529 -0.69667697 164.68062758 C-0.67470235 158.88572807 -0.64737018 153.09085381 -0.62062073 147.29597473 C-0.57084816 136.33872125 -0.52585252 125.38145364 -0.48259836 114.4241727 C-0.43309348 101.94283443 -0.37822479 89.46152151 -0.32291877 76.9802078 C-0.2093359 51.32016222 -0.10244591 25.66009229 0 0 Z " fill="#ffffff" transform="translate(394,104)"/>
<path d="M0 0 C6.55812985 5.58655506 11.32051098 15.6025549 13 24 C13.66 24 14.32 24 15 24 C15 23.34 15 22.68 15 22 C15.66 22 16.32 22 17 22 C17 19.69 17 17.38 17 15 C20.18980241 18.18980241 21.03394681 22.33738227 22.4375 26.5625 C22.90663818 27.97366089 22.90663818 27.97366089 23.38525391 29.41333008 C28.51391834 45.33854582 30.18853083 61.45015156 30.0625 78.125 C30.05798828 79.27226562 30.05347656 80.41953125 30.04882812 81.6015625 C30.03716339 84.40109813 30.02079614 87.20051986 30 90 C30.66 90.33 31.32 90.66 32 91 C31.67 91.99 31.34 92.98 31 94 C30.34 94 29.68 94 29 94 C28.98541748 93.41436279 28.97083496 92.82872559 28.95581055 92.2253418 C28.61725132 79.84699448 27.90242516 67.56311914 26.5625 55.25 C26.44028076 54.09072998 26.31806152 52.93145996 26.19213867 51.73706055 C26.06814697 50.65336182 25.94415527 49.56966309 25.81640625 48.453125 C25.70756104 47.49567383 25.59871582 46.53822266 25.48657227 45.55175781 C25.1214009 43.00371281 25.1214009 43.00371281 23.94897461 40.90917969 C23 39 23 39 23 35 C21.02 35.495 21.02 35.495 19 36 C19.11633358 37.52152079 19.2435887 39.04220723 19.375 40.5625 C19.44460938 41.40941406 19.51421875 42.25632812 19.5859375 43.12890625 C19.91885829 46.05606736 19.91885829 46.05606736 21.00048828 48.95043945 C22.49380047 54.10642235 22.36365412 59.3331674 22.40625 64.6640625 C22.41765015 65.77429779 22.42905029 66.88453308 22.4407959 68.02841187 C22.45962325 70.36655909 22.47273487 72.70475852 22.48046875 75.04296875 C22.49997667 78.620721 22.56212113 82.19621912 22.625 85.7734375 C22.63805266 88.04946558 22.64855651 90.32551 22.65625 92.6015625 C22.6809436 93.66935944 22.70563721 94.73715637 22.7310791 95.83731079 C22.68742956 103.09565863 22.68742956 103.09565863 20.61987305 105.81561279 C18.95898438 107.21240234 18.95898438 107.21240234 16 109 C15.67 108.34 15.34 107.68 15 107 C16.21913086 106.29351318 16.21913086 106.29351318 17.46289062 105.57275391 C20.63159806 102.35952845 20.59298279 100.80323589 20.64343262 96.45248413 C20.61883972 95.15729355 20.61883972 95.15729355 20.59375 93.8359375 C20.59379028 92.92985748 20.59383057 92.02377747 20.59387207 91.09024048 C20.58850907 89.16523334 20.57089305 87.24022733 20.54199219 85.31542969 C20.5008358 82.43352529 20.50086997 79.55401804 20.5078125 76.671875 C20.45770964 61.9205578 19.3733955 47.07191164 14.375 33.0625 C14.1284668 32.34360596 13.88193359 31.62471191 13.62792969 30.8840332 C10.68062121 22.61143368 6.79566759 14.76746752 2.91210938 6.90380859 C1.82907402 4.6432332 0.88053172 2.34652335 0 0 Z " fill="#ffffff" transform="translate(328,286)"/>
<path d="M0 0 C0.99 0.33 1.98 0.66 3 1 C3.81442064 18.05080785 4.1626368 35.05600368 4.125 52.125 C4.1234491 53.39275269 4.12189819 54.66050537 4.12030029 55.9666748 C4.10591202 67.31123381 4.05561183 78.65557828 4 90 C3.99468262 91.10517471 3.98936523 92.21034943 3.98388672 93.34901428 C3.90835365 108.92925982 3.81920416 124.50937926 3.70925713 140.08941841 C3.69970445 141.44321822 3.69015309 142.79701804 3.68060303 144.15081787 C3.67587215 144.82029619 3.67114127 145.4897745 3.66626704 146.17954004 C3.63346319 150.87946149 3.60514688 155.57939694 3.57867432 160.27935791 C3.54179546 166.72337853 3.49531373 173.16726629 3.44206238 179.61117172 C3.42371264 182.00612054 3.40845317 184.40109547 3.3966217 186.79608536 C3.20273066 224.59453868 3.20273066 224.59453868 0 231 C-0.66 231 -1.32 231 -2 231 C-1.79416951 229.5257863 -1.79416951 229.5257863 -1.58418083 228.0217905 C-0.32801435 218.72609284 0.3936334 209.54400402 0.61669922 200.15795898 C0.64439632 199.12407305 0.64439632 199.12407305 0.67265296 198.06930053 C1.16955134 179.50742263 1.14709501 160.93972676 1.1343255 142.37262654 C1.13174276 137.42228093 1.13415437 132.4719369 1.13571167 127.52159119 C1.13751121 119.2530788 1.13518059 110.98457546 1.13037109 102.71606445 C1.12487651 93.15931809 1.12673714 83.60259289 1.1321975 74.045847 C1.13672586 65.7878921 1.13738223 57.52994359 1.13475883 49.27198786 C1.13320167 44.36067922 1.13298808 39.44938058 1.13629532 34.53807259 C1.13917182 29.95030268 1.13720256 25.36256051 1.13140106 20.77479362 C1.13007467 19.09048382 1.13046554 17.40617169 1.13266373 15.72186279 C1.13537853 13.43185786 1.13199073 11.14194308 1.12698364 8.85194397 C1.12660662 7.56926667 1.12622959 6.28658937 1.12584114 4.96504307 C1.2053974 2.07005763 1.2053974 2.07005763 0 0 Z " fill="#ffffff" transform="translate(385,98)"/>
<path d="M0 0 C1.30687271 0.06851669 2.61374542 0.13703339 3.96022034 0.20762634 C19.76680415 0.99015927 35.55722824 1.20804304 51.3809135 1.30332303 C54.93491846 1.32563559 58.48888682 1.35279639 62.04286194 1.37937927 C68.73215189 1.42870935 75.42146282 1.47386187 82.1107927 1.51740164 C89.74361139 1.56729423 97.37639329 1.62201431 105.00917614 1.67708123 C120.67274985 1.7899814 136.33635779 1.89700984 152 2 C152 2.66 152 3.32 152 4 C144.81412772 4.75169588 137.72022204 5.15220551 130.49682617 5.16113281 C129.50953018 5.16609772 128.52223419 5.17106262 127.50502014 5.17617798 C124.26766227 5.19066822 121.03035362 5.19758467 117.79296875 5.203125 C116.67104944 5.20595238 115.54913013 5.20877975 114.39321327 5.21169281 C108.43881628 5.22664296 102.48444318 5.23589494 96.5300293 5.24023438 C91.66894932 5.24459488 86.80804924 5.25839779 81.94702148 5.28125 C21.89897686 5.55825386 21.89897686 5.55825386 0 1 C0 0.67 0 0.34 0 0 Z " fill="#ffffff" transform="translate(334,541)"/>
<path d="M0 0 C0.66 0.33 1.32 0.66 2 1 C2 36.64 2 72.28 2 109 C8.93 109.66 15.86 110.32 23 111 C26.465 111.495 26.465 111.495 30 112 C30 112.33 30 112.66 30 113 C22.30147863 113.10980458 14.67748577 112.98359633 6.99609375 112.49609375 C6.22164917 112.44868042 5.44720459 112.40126709 4.64929199 112.35241699 C2.7660767 112.2368511 0.88302029 112.1187008 -1 112 C-1.02333012 97.54467189 -1.04091332 83.08934669 -1.05181217 68.63400364 C-1.05697489 61.92258132 -1.06401713 55.21117068 -1.07543945 48.49975586 C-1.08626565 42.02886264 -1.09227626 35.55798158 -1.09487724 29.08708 C-1.09673198 26.61221055 -1.1003535 24.1373418 -1.10573006 21.66247749 C-1.11293693 18.20929627 -1.11399109 14.75616599 -1.11352539 11.30297852 C-1.11712067 10.26864182 -1.12071594 9.23430511 -1.12442017 8.16862488 C-1.1230455 7.23327911 -1.12167084 6.29793335 -1.12025452 5.33424377 C-1.12117631 4.5166134 -1.1220981 3.69898302 -1.12304783 2.85657597 C-1 1 -1 1 0 0 Z " fill="#ffffff" transform="translate(211,104)"/>
<path d="M0 0 C4.02077152 -0.05843491 8.04143259 -0.0937424 12.0625 -0.125 C13.7630957 -0.15013672 13.7630957 -0.15013672 15.49804688 -0.17578125 C21.42363717 -0.2103328 26.41518837 -0.01669777 32 2 C33.64192903 2.39174154 35.28732795 2.76957833 36.9375 3.125 C38.09572266 3.37636719 38.09572266 3.37636719 39.27734375 3.6328125 C39.84582031 3.75398437 40.41429687 3.87515625 41 4 C41 4.66 41 5.32 41 6 C35.92244962 5.48188261 31.05044357 4.5901156 26.0625 3.5 C20.34506038 2.32027079 14.82292097 1.68162767 8.99609375 1.40625 C8.22164917 1.36532227 7.44720459 1.32439453 6.64929199 1.28222656 C4.76643819 1.18339672 2.88324795 1.09101049 1 1 C1.08416419 21.56787008 1.17939304 42.13566302 1.28752708 62.70342159 C1.33749049 72.25498314 1.38393421 81.8065368 1.421875 91.3581543 C1.45498201 99.69055566 1.49491407 108.02289271 1.54279006 116.35522276 C1.56787061 120.76055901 1.58970453 125.16585362 1.60334396 129.57124138 C1.61633403 133.73188198 1.63856375 137.89237837 1.66738319 142.05293846 C1.67632856 143.56642327 1.68211795 145.07993121 1.68421364 146.59344101 C1.69950143 155.97131077 2.33282635 165.07933587 3.57370949 174.37717533 C3.91849736 177.30735084 4.08947612 180.05790456 4 183 C-1.89674396 173.17867235 -0.28323232 157.39659378 -0.22705078 146.22070312 C-0.2264848 144.61245226 -0.22680686 143.00420088 -0.22793579 141.39595032 C-0.22850302 137.08500501 -0.2168524 132.77417398 -0.20278788 128.46325493 C-0.19017389 123.9376269 -0.1891017 119.41199544 -0.18673706 114.88635254 C-0.18055333 106.34098757 -0.16418515 97.79567457 -0.14403808 89.25033236 C-0.12158162 79.51133894 -0.11066129 69.77234288 -0.10064721 60.03332996 C-0.0798157 40.02219111 -0.04470102 20.01109885 0 0 Z " fill="#ffffff" transform="translate(211,222)"/>
<path d="M0 0 C0.66 0 1.32 0 2 0 C2.01030746 1.1635199 2.02061493 2.32703979 2.03123474 3.52581787 C2.12929926 14.52980453 2.2320621 25.5337388 2.33933926 36.53763962 C2.3943331 42.19385716 2.44771335 47.85008005 2.49731445 53.50634766 C2.54530783 58.9723346 2.59765937 64.43826451 2.65294075 69.90418243 C2.67320707 71.98198258 2.69194433 74.05979827 2.70907402 76.13762665 C2.80419611 89.19720783 2.80419611 89.19720783 3.26977539 102.24707031 C3.31332657 103.13952454 3.35687775 104.03197876 3.40174866 104.95147705 C3.81278063 107.19704704 3.81278063 107.19704704 6.04563904 108.29705811 C6.69057816 108.52902893 7.33551727 108.76099976 8 109 C6.1875 109.625 6.1875 109.625 4 110 C3.01 109.34 2.02 108.68 1 108 C0.59738063 105.50019674 0.39674848 103.23833584 0.31860352 100.72290039 C0.26886682 99.59490949 0.26886682 99.59490949 0.21812534 98.4441309 C-0.16254395 88.77848278 -0.12443234 79.10481003 -0.09765625 69.43359375 C-0.09578573 67.41764868 -0.09436483 65.40170314 -0.09336853 63.38575745 C-0.08959317 58.14001152 -0.07980689 52.89429433 -0.06866455 47.64855957 C-0.05834187 42.27156971 -0.05384791 36.89457509 -0.04882812 31.51757812 C-0.03817894 21.01170629 -0.02116423 10.50585556 0 0 Z " fill="#ffffff" transform="translate(348,400)"/>
<path d="M0 0 C3.980625 -0.04125 7.96125 -0.0825 12.0625 -0.125 C13.92467163 -0.15231201 13.92467163 -0.15231201 15.82446289 -0.18017578 C21.65722833 -0.20937965 26.50006389 0.05210596 32 2 C33.64192903 2.39174154 35.28732795 2.76957833 36.9375 3.125 C38.09572266 3.37636719 38.09572266 3.37636719 39.27734375 3.6328125 C39.84582031 3.75398437 40.41429687 3.87515625 41 4 C41 4.66 41 5.32 41 6 C35.92244962 5.48188261 31.05044357 4.5901156 26.0625 3.5 C16.57409914 1.5611268 16.57409914 1.5611268 1 1 C1 14.86 1 28.72 1 43 C0.67 43 0.34 43 0 43 C0 28.81 0 14.62 0 0 Z " fill="#ffffff" transform="translate(211,222)"/>
<path d="M0 0 C10.08569624 15.12854436 7.27138967 41.81894618 7 59 C7.66 59.33 8.32 59.66 9 60 C8.67 60.99 8.34 61.98 8 63 C7.34 63 6.68 63 6 63 C5.97812622 62.12154419 5.97812622 62.12154419 5.95581055 61.2253418 C5.61725132 48.84699448 4.90242516 36.56311914 3.5625 24.25 C3.44028076 23.09072998 3.31806152 21.93145996 3.19213867 20.73706055 C3.06814697 19.65336182 2.94415527 18.56966309 2.81640625 17.453125 C2.70756104 16.49567383 2.59871582 15.53822266 2.48657227 14.55175781 C2.00547547 12.02871529 1.20452827 10.24690261 0 8 C-0.24636612 5.29982731 -0.09065666 2.71969994 0 0 Z " fill="#ffffff" transform="translate(351,317)"/>
<path d="M0 0 C0.66 0.33 1.32 0.66 2 1 C-3.86727556 7.44069167 -9.75675841 13.85828277 -15.875 20.0625 C-16.71804687 20.91972656 -17.56109375 21.77695313 -18.4296875 22.66015625 C-21.15877799 25.14454106 -23.88563407 27.03422675 -27 29 C-25.38998008 25.12675208 -22.76937854 22.32879341 -19.9375 19.3125 C-19.44942871 18.78720703 -18.96135742 18.26191406 -18.45849609 17.72070312 C-6.2087151 4.60646604 -6.2087151 4.60646604 0 0 Z " fill="#ffffff" transform="translate(183,105)"/>
<path d="M0 0 C1.18851562 0.00902344 2.37703125 0.01804687 3.6015625 0.02734375 C4.51679688 0.03894531 5.43203125 0.05054688 6.375 0.0625 C3.11646797 1.96585041 0.42908818 2.42024189 -3.31640625 2.6953125 C-4.42693359 2.77910156 -5.53746094 2.86289062 -6.68164062 2.94921875 C-7.83857422 3.02785156 -8.99550781 3.10648437 -10.1875 3.1875 C-11.88229492 3.31705078 -11.88229492 3.31705078 -13.61132812 3.44921875 C-18.95586688 3.8369055 -24.2500241 4.10355284 -29.609375 4.0546875 C-33.31104533 4.02161578 -36.68790299 4.22201374 -40.3125 5.0625 C-41.55580078 5.3409375 -41.55580078 5.3409375 -42.82421875 5.625 C-43.41847656 5.769375 -44.01273438 5.91375 -44.625 6.0625 C-44.955 4.7425 -45.285 3.4225 -45.625 2.0625 C-44.51463379 2.03744385 -43.40426758 2.0123877 -42.26025391 1.98657227 C-38.14896681 1.89255085 -34.03785077 1.79231743 -29.92675781 1.69018555 C-28.14587397 1.6468167 -26.36494802 1.60514306 -24.58398438 1.56518555 C-22.02721452 1.5075301 -19.47065702 1.4438223 -16.9140625 1.37890625 C-16.11505524 1.36219376 -15.31604797 1.34548126 -14.49282837 1.32826233 C-9.4035697 1.19120576 -5.13357173 -0.05032913 0 0 Z " fill="#ffffff" transform="translate(271.625,435.9375)"/>
<path d="M0 0 C1.60294922 0.01353516 1.60294922 0.01353516 3.23828125 0.02734375 C4.04652344 0.03894531 4.85476563 0.05054687 5.6875 0.0625 C5.6875 0.3925 5.6875 0.7225 5.6875 1.0625 C4.97730713 1.20349121 4.26711426 1.34448242 3.53540039 1.48974609 C0.2733919 2.13795382 -2.98830508 2.78771635 -6.25 3.4375 C-7.36697266 3.65921875 -8.48394531 3.8809375 -9.63476562 4.109375 C-15.87879182 5.35451805 -22.10336839 6.65342878 -28.3125 8.0625 C-28.3125 7.4025 -28.3125 6.7425 -28.3125 6.0625 C-24.32592704 4.25042138 -20.62778102 3.67896872 -16.3125 3.0625 C-14.63504318 2.42346883 -12.96688613 1.75908363 -11.3125 1.0625 C-7.48649268 0.11428675 -3.93465856 -0.04323801 0 0 Z " fill="#ffffff" transform="translate(268.3125,82.9375)"/>
<path d="M0 0 C0.33 0 0.66 0 1 0 C1.02946879 3.9374838 1.04695407 7.87493856 1.0625 11.8125 C1.07087891 12.91271484 1.07925781 14.01292969 1.08789062 15.14648438 C1.14266404 33.71467192 1.14266404 33.71467192 -1 38 C-1.66 38 -2.32 38 -3 38 C-2.86722656 37.10023438 -2.73445313 36.20046875 -2.59765625 35.2734375 C-0.98647638 23.53652134 -0.40255963 11.83459861 0 0 Z " fill="#ffffff" transform="translate(386,291)"/>
<path d="M0 0 C5.78343062 -0.23605839 10.43574707 0.21149013 16 2 C18.99067739 2.7104659 21.99369346 3.35919997 25 4 C25 4.66 25 5.32 25 6 C19.65643119 5.45473788 14.39919391 4.57301465 9.125 3.5625 C7.82820312 3.31628906 6.53140625 3.07007813 5.1953125 2.81640625 C2 2 2 2 0 0 Z " fill="#ffffff" transform="translate(227,222)"/>
<path d="M0 0 C1.5613959 2.93270882 2.66538899 5.82068273 3.625 9 C3.88539063 9.845625 4.14578125 10.69125 4.4140625 11.5625 C5 14 5 14 5 18 C4.34 18 3.68 18 3 18 C0.86380263 11.79485526 -0.36517527 6.57315478 0 0 Z " fill="#ffffff" transform="translate(215,405)"/>
<path d="M0 0 C1.72357119 2.58535679 2.44735018 4.03811614 3.1875 6.9375 C3.36667969 7.60652344 3.54585938 8.27554687 3.73046875 8.96484375 C4.03268678 11.24680888 3.68756692 12.82026659 3 15 C0.31780178 9.63560356 -0.3152595 5.98993047 0 0 Z " fill="#ffffff" transform="translate(351,317)"/>
<path d="M0 0 C0.66 0.33 1.32 0.66 2 1 C-0.25 3.5625 -0.25 3.5625 -3 6 C-4.32 5.67 -5.64 5.34 -7 5 C-4.69 3.35 -2.38 1.7 0 0 Z " fill="#ffffff" transform="translate(330,404)"/>
<path d="M0 0 C2.79872437 2.52788007 4.45773019 4.20411134 5 8 C2 7 2 7 0 4 C0 2.68 0 1.36 0 0 Z " fill="#ffffff" transform="translate(332,278)"/>
<path d="" fill="#ffffff" transform="translate(0,0)"/>
</svg>
